<svg xmlns="http://www.w3.org/2000/svg" viewBox="0 0 120 120">
  <defs>
    <radialGradient id="pg" cx="45%" cy="35%" r="60%">
      <stop offset="0%" stop-color="#EF5350"/>
      <stop offset="100%" stop-color="#B71C1C"/>
    </radialGradient>
  </defs>
  <path d="M60 110C60 110 18 68 18 42C18 18.8 36.8 0 60 0C83.2 0 102 18.8 102 42C102 68 60 110 60 110Z" fill="#C62828"/>
  <path d="M60 107C60 107 20 66 20 42C20 20 38 2 60 2C82 2 100 20 100 42C100 66 60 107 60 107Z" fill="url(#pg)"/>
  <rect x="52" y="24" width="16" height="38" rx="3" fill="#fff"/>
  <rect x="41" y="35" width="38" height="16" rx="3" fill="#fff"/>
</svg>
